<?xml version="1.0" encoding="utf-8"?>
<!-- Generator: Adobe Illustrator 15.0.0, SVG Export Plug-In . SVG Version: 6.00 Build 0)  -->
<!DOCTYPE svg PUBLIC "-//W3C//DTD SVG 1.1//EN" "http://www.w3.org/Graphics/SVG/1.1/DTD/svg11.dtd">
<svg version="1.1" id="Capa_1" xmlns="http://www.w3.org/2000/svg" xmlns:xlink="http://www.w3.org/1999/xlink" x="0px" y="0px"
	 width="135.333px" height="152px" viewBox="0 0 135.333 152" enable-background="new 0 0 135.333 152" xml:space="preserve">
<g id="XMLID_3_">
	<g>
		<path d="M120.75,49.812c-7.8-1.13-16.55,1.48-21.75,5.25c0.64,2.2,1.89-0.98,3.75,0c-1.09,1.16-2.93,1.57-5.25,1.5
			c2.44-5.56,6.06-9.94,9.75-14.25c0.85,0.14,0.42,0.75,0,0.75C110.56,46.502,118.43,45.382,120.75,49.812z"/>
		<path d="M0.52,74.643c0,0.19,0,0.38,0,0.57c-0.17,0.04-0.34,0.07-0.52,0.1C0.17,75.083,0.33,74.862,0.52,74.643z"/>
		<path fill="#FFFFFF" d="M66,77.812c-0.67,2.25-3,0.63-4.25-0.37c0.35,1.79,2.87,2.41,4.63,2c0.72,0.54,4.94-0.36,3.54-2.38
			C68.44,78.942,67.42,78.982,66,77.812z M73.5,37.812c16.23,4.52,18.64,21.02,17.36,39.73c-0.41,1.37-0.89,2.69-1.46,3.93
			c-2.14,1.85-6.28,1.31-11.4,3.59c-5.43,2.42-7.13,6.47-10.5,6.75c-5.72,0.47-9.03-4.07-14.25-6.75
			c-14.17,1.67-14.43-9.48-13.5-21.75c0.96-12.66,9.25-24.24,18-25.5c3.65,2.65,3.15,8.88,2.25,14.25c2.8,0.04,6.25-5.74,6-11.25
			c1.58,0.61,2.06,3.95,0.75,5.25C71.5,45.812,72.07,41.382,73.5,37.812z M75,72.312c-1.18,3.98,7.88,0.99,6.75,0.75
			C79.02,73.292,76.87,72.942,75,72.312z M77.25,61.812c1.39-13.75-12.18-1.36-6,4.5c2.36,0.36,2.93-1.07,4.5-1.5
			c0.66-2.41-2.47-1.03-2.25-3C75.89,61.362,75.82,63.223,77.25,61.812z M69.17,70.462c0.11-2.45-2.21-4.23-9.17-0.4
			c3.04,7.59,7.31,5.28,8.71,2.21c0.39-0.45,0.72-0.94,1.04-1.46C69.55,70.703,69.36,70.592,69.17,70.462z M72.75,68.562
			c-3.76-3.89-15.59-1.98-15.75,1.5C60.1,65.502,69.86,67.772,72.75,68.562z M57.75,61.812c1.18-0.07,2.6,0.1,2.25-1.5
			c-1.24-2.51-2.29-5.21-6.75-4.5c-2.91,4.45,3.63,14.68,6.75,8.25C60.3,62.263,56.58,64.482,57.75,61.812z M56.25,73.062
			c-1.55,0.45-4.93-0.93-5.25,0.75c1.12,0.13,2.77-0.27,3,0.75C43.43,77.362,52.24,77.562,56.25,73.062z"/>
		<path fill="#FFFFFF" d="M80.43,148.713c0.37,0.02,0.81-0.17,1.32-0.65C81.4,148.393,80.97,148.593,80.43,148.713z M78.08,145.103
			c0.21,0.35-1.02,2.9-2.51,3.71c-0.52-0.01-1.09-0.02-1.7-0.02c-0.39-0.25-0.77-0.721-1.12-1.48c-0.62-1.48,1.15-3.27,1.31-3.46
			c-0.05,0.03-0.22,0.19-0.56,0.46c-1.92,0.08-1.49,2.51-1.5,4.5c0.66-0.02,1.29-0.02,1.87-0.02c0.56,0.38,1.15,0.319,1.7,0.02
			c2.23,0.05,3.76,0.14,4.85-0.1C78.97,148.643,78.49,145.503,78.08,145.103z M35.82,92.742c0.64-0.54,3.52-2.88,5.43-2.43
			c-3.17,5.33-5.22,11.78-6,19.5c2.49,0.68,3.25-4.17,4.5-2.25c-0.63,10.88,1.55,18.95,3.75,27c0.13-4.5-4.46-20.06-3-28.5
			c3.43-2.82,7.7-4.8,12.75-6c2.04,11.28-1.95,24.3,2.25,34.5c1.52,3.69,7.49,6.14,6.75,10.5c0.98-2.33-0.2-2.14,0-5.25
			c-8.61-4.11-8.94-23.74-6.75-33.75c1.08,3.92,0.31,9.69,3.75,11.25c1.54-8.17,4.23-16.07,10.5-16.5c2.28-0.16,3.21,2.42,6.75,3.75
			c4.2,1.58,9.12,5.47,12,9c1.01-5.83-0.65-12.61-3-17.25c2.37,1.03,4.53-1.86,5.25,0c0.72,6.05-0.67,9.8-0.75,13.5
			c-0.19,8.48,0.05,7.62,0.75,1.5c0.53-4.63,1.43-12.79,1.5-15.75c3.99,0.55,6.81,2,9.75,1.5c-5.47-2.6-12.02-3.51-18.75-1.5
			c2.03,4.47,4.88,8.12,4.5,15c-5.38-3.62-11.26-12.08-18.75-11.25c-6.58,0.73-7.89,8.23-11.25,14.25c-0.64-5.36-2.06-9.94-3-15
			c-8.07-0.06-13.96,6.04-18,7.5c0.59-7.16,3.97-11.53,6-17.25c-2.16,1.15-9.27,0.3-6.75,3.75
			C35.92,92.633,35.86,92.692,35.82,92.742z M134.02,2.002c0,50,0,100,0,150c-44.5,0-89,0-133.5,0c0-25.601,0-51.19,0-76.791
			c1.68-0.37,3.03-1.06,3.98-2.15c-5.88,1.4,5.6-5.18,3.75-6.75c-2.39,2.97-5.39,5.33-7.73,8.33c0-23.46,0-46.93,0-70.39
			c-0.06-1.06-0.12-2.12,0.75-2.25C45.52,2.002,89.77,2.002,134.02,2.002z M124.5,57.312c1.49,1.29,5.5,3.96,4.5,5.25
			c-1.42-0.83-3.54-0.96-5.25-1.5c-5.15,0.4,4.87,1.74,6.75,2.25C129.44,60.853,126.54,56.303,124.5,57.312z M126,86.562
			c1.12,1.21,0.3,3.92,3,2.25c-4.53-5.76-14.61-13.83-19.5-14.25C115.65,77.353,122.07,82.333,126,86.562z M124.5,109.812
			c0.95-0.62,4.28-2.63,2.25-3.75c-1.52,6.41-8.09,0.56-9.01-2.56c0-0.37,0-0.771,0.01-1.19c-0.16,0.3-0.15,0.71-0.01,1.19
			C117.68,110.372,118.89,108.702,124.5,109.812z M124.5,97.062C126.05,103.893,127.55,99.322,124.5,97.062
			c-0.41-0.3-0.91-0.56-1.5-0.75c-0.69,0.72-5.18,3.41-3,2.25C122.2,98.763,122.3,96.862,124.5,97.062z M113.25,54.312
			c4.62-1.1,8.44,2.53,10.5,1.5C121.04,55.002,116.5,52.092,113.25,54.312z M122.25,31.062c-5.62-0.12-10.94,0.06-14.25,2.25
			c3.87-0.15,8.98-2.99,12.75-0.75c-1.86-0.3-5.42,3.79-3.75,2.25C119.35,34.163,121.14,32.953,122.25,31.062z M106.5,67.812
			c6.31-0.05,11.62,4.87,15.75,4.5c-2.95-2.8-6.54-4.96-8.25-9C117.15,62.333,106.51,64.692,106.5,67.812z M111,85.062
			c2.06,0.17,10.67,2.45,7.5,0.75C116.61,85.572,110.04,83.303,111,85.062z M99,55.062c5.2-3.77,13.95-6.38,21.75-5.25
			c-2.32-4.43-10.19-3.31-13.5-6.75c0.42,0,0.85-0.61,0-0.75c-3.69,4.31-7.31,8.69-9.75,14.25c2.32,0.07,4.16-0.34,5.25-1.5
			C100.89,54.083,99.64,57.263,99,55.062z M102.75,98.562c3.7,0.57,6.11,6.36,9,5.25C109.6,103.143,105.6,98.032,102.75,98.562z
			 M103.5,88.812c1.69,0.36,5.62,2.32,6.75,0.75c-2.72-1.53-4.63-3.87-6-6.75c-3.61,0.89-8.89,0.11-11.25,2.25
			c9.16,1.34,13.97,11.02,17.25,15.75C108.64,96.173,105.36,93.202,103.5,88.812z M101.25,70.062c1.8-0.01,5.29-2.13,3.75-3
			c-1.36,1.89-4.37,2.13-5.25,4.5c1.46,0.1,6.9,2.31,5.25,0.75C104.04,71.272,101.33,71.982,101.25,70.062z M102,35.562
			c-3.63-1.85-7.71,6.26-10.5,5.25c3.3-8.7,11.15-12.85,18-18c-5.6,0.12-15.42,7.87-18,1.5c-0.88,5.62-0.84,12.16-0.75,18.75
			C95.1,41.163,96.77,36.583,102,35.562z M102,11.562c-2.81-0.27-8.75,0.2-7.5,1.5C96.84,11.013,101.54,14.212,102,11.562z
			 M101.25,131.562c-1.65-1.98-1.93-2.49-2.25-4.5c-0.01,1.49-2.05,0.95-1.5,3C98.49,130.822,100.26,130.803,101.25,131.562z
			 M87,138.312c7.78-6.16,14.58-20.65,12-32.25c0.14,14.14-5.87,26.12-12.75,30.75c0.71-5.54,2.97-9.53,3.75-15
			c0.4-4.34-1.34-2.6-0.75,0.75c-1.85,4.65-2.55,10.45-4.5,15c1.77,0.98,1.45,4.05,2.25,6C88.5,147.122,87.07,140.013,87,138.312z
			 M90.86,77.542c4.76-16.19-2.15-39.69-18.86-41.23c0.46,4.21-1.42,6.08-3.75,7.5c0.32-3.32-1.25-4.75-3.75-5.25
			c0.53,4.31-0.36,11.11-3,9.75c2.29-17.27-11.92-10.15-17.25-3c-7.28,9.77-9.3,40.08,3,42c10.14-0.08,12.73,8.54,21,7.5
			c6.25-0.79,9.11-9.75,18-8.25c1.24-1.5,2.29-3.21,3.15-5.09c0.64-0.55,1.09-1.3,1.35-2.41C90.79,78.553,90.83,78.042,90.86,77.542
			z M93,13.062c-7.38,2.12-10.72,8.28-13.5,15c-2.44-5.82,4.52-12.38,4.5-15.75c-3.11,2.14-5.45,5.05-9,6.75
			c-0.15-1.42,0.51-7.41-0.75-5.25c-0.37,8.12,1.46,14.04,4.5,18.75C81.45,24.013,85.26,16.572,93,13.062z M84,148.812
			c0.01-0.99,1.31-0.69,1.5-1.5c-0.72-0.69-3.4-5.18-2.25-3C84.69,146.183,82.11,147.393,84,148.812z M76.5,125.562
			c-0.45-5.81,0.93-17.42-0.75-19.5C76.2,111.872,74.82,123.482,76.5,125.562z M69,145.812c-1.38-9.13,9.39-10.1,6-18.75
			c0.48,8.73-6.46,10.04-8.25,16.5C69.42,142.393,67.2,146.112,69,145.812z M63.75,29.562c0.35-4.05,2.88-13.41,2.25-13.5
			c-1.04,1.21-0.63,3.87-2.25,4.5c-1.88-4.38-6.08-10.4-9.75-10.5c0.8,0.31,1.74,4.11,0.75,3.75c-3.21-3.8-8.7-9.29-12.75-9.75
			C51.06,8.243,58.35,19.362,63.75,29.562z M59.25,147.312c0.06-1.62-4.41-4.8-3-3c0.85,0.9,2.14,1.36,1.5,3.75
			c-4.8,2.26-5.52-3.43-6-3c1.85,3.9-4.24,3.69-5.25,2.25c-1.29-2.45,3.59-3.61,0-3.75c-0.41,1.33-0.39,3.11-1.5,3.75
			c-0.84,0.08-1.17-1.09-1.5,0C46.59,149.112,56.36,150.043,59.25,147.312z M49.5,22.812c-0.19-9.55-0.35-2.89-1.5,1.5
			c-2.41-1.4-7.02-6.31-9-1.5c2.05,0.55,1.51-1.49,3-1.5c-0.22,1.47,1.01,1.49,1.5,2.25c-3.29-0.55,0.6,1.49-1.5,1.5
			c-0.29-1.07-0.9-1.27,0-2.25c-1.81-0.31-1.63,1.37-3.75,0.75c-1.31-1.53,0.56-1.47-0.75-3c1,0.97,2.79,0.99,3-0.75
			c-2.26-0.03-6.42-2.02-8.25,0c1.49,1.82,3.2-1.27,3.75,1.5c-0.99,0.01-0.69,1.31-1.5,1.5c-0.95-0.86-3.99-3.43-5.25-1.5
			c7.88,1.37,11.59,6.91,17.25,10.5C47.35,28.663,49.1,26.413,49.5,22.812z M43.37,142.433c0.52-2.78,2.85-4.73,0.88-7.12
			c-7.76-2.75-10.84-16.66-12.75-27.75C28.68,122.643,41.81,131.992,43.37,142.433c-0.16,0.8-0.16,1.67,0.13,2.63
			C43.55,144.173,43.5,143.303,43.37,142.433z M36,45.312c0-2.25,0-4.5,0-6.75c-7.11-0.14-13.54-4.95-21-2.25
			c3.38,1.43,7.49,2.16,6,5.25C26.02,42.792,31.48,43.583,36,45.312z M33.75,76.062c-2.19-3.06-3.85-6.65-8.25-7.5
			c-4,0.54,1.92,0.67,2.25,1.5c-5.16,4.59-15.78,7.72-16.5,14.25c4.29-1.94,14.03-5.65,18-3c-1.2,0.61-4.87,2.55-3,3.75
			C28.19,81.502,32.43,80.243,33.75,76.062z M30,30.312c2.59,0.37-8.81-11.77-11.25-10.5C23.35,22.462,27.09,25.973,30,30.312z
			 M25.5,97.812c1.26-3.74,5.39-4.61,8.25-6.75c-3.71,0.79-7.78,1.22-10.5,3C27.89,93.103,23.01,97.003,25.5,97.812z M16.5,63.312
			c4.15-1.48,12.39-2.43,17.25-0.75c-2.2-6.85-12.76-13.17-17.25-12.75c2.95,1.3,6.73,1.77,8.25,4.5
			c-8.01-0.5-15.62,3.37-15.75,8.25C10.79,60.683,20.24,60.703,16.5,63.312z M18,19.062c2.76-1.97,6.44,1.54,9.75,1.5
			c-1.07-1.95-9.69-2.8-13.5-4.5C14.49,18.862,19.02,16.842,18,19.062z M15,94.812c2.69-3.07,8.95-6.54,9-9.75
			c-3.06,4.19-7.44,7.06-10.5,11.25c1.82,0.25,6.07-0.83,4.5-1.5C16.6,94.093,15.49,97.062,15,94.812z"/>
		<path d="M75.75,106.062c1.68,2.08,0.3,13.69,0.75,19.5C74.82,123.482,76.2,111.872,75.75,106.062z"/>
		<path d="M129,88.812c-2.7,1.67-1.88-1.04-3-2.25c-3.93-4.23-10.35-9.21-16.5-12C114.39,74.982,124.47,83.053,129,88.812z"/>
		<path d="M129,62.562c1-1.29-3.01-3.96-4.5-5.25c2.04-1.01,4.94,3.54,6,6c-1.88-0.51-11.9-1.85-6.75-2.25
			C125.46,61.603,127.58,61.732,129,62.562z"/>
		<path fill="#FFFFFF" d="M97.5,26.562c3.19,0.47,0.04,5.12-1.5,3c-0.5,2.9,0,2.67-0.75,4.5c-0.85-0.14-0.42-0.75,0-0.75
			c-0.01-1.15-2.05-2.47-1.5,0c-1.08-0.17-0.26-2.24-1.5-2.25c-0.23-1.52,2.17,0.15,2.25,0.75c2.49-0.73-0.84-1.48-0.75-2.25
			C92.03,29.053,98.11,30.062,97.5,26.562z"/>
		<path d="M123.75,55.812c-2.06,1.03-5.88-2.6-10.5-1.5C116.5,52.092,121.04,55.002,123.75,55.812z"/>
		<path d="M99,127.062c0.32,2.01,0.6,2.52,2.25,4.5c-0.99-0.76-2.76-0.74-3.75-1.5C96.95,128.013,98.99,128.553,99,127.062z"/>
		<path d="M75,127.062c3.39,8.65-7.38,9.62-6,18.75c-1.8,0.3,0.42-3.42-2.25-2.25C68.54,137.103,75.48,135.793,75,127.062z"/>
		<path d="M90.86,77.542c-0.03,0.5-0.07,1.01-0.11,1.52c-0.26,1.11-0.71,1.86-1.35,2.41C89.97,80.232,90.45,78.913,90.86,77.542z"/>
		<path fill="#FFFFFF" d="M80.79,16.163c0.17-0.37,0.25-0.48,0.21-0.1C80.93,16.092,80.85,16.123,80.79,16.163z"/>
		<path d="M56.25,144.312c-1.41-1.8,3.06,1.38,3,3c-2.89,2.73-12.66,1.8-15.75,0c0.33-1.09,0.66,0.08,1.5,0
			c1.11-0.64,1.09-2.42,1.5-3.75c3.59,0.14-1.29,1.3,0,3.75c1.01,1.44,7.1,1.65,5.25-2.25c0.48-0.43,1.2,5.26,6,3
			C58.39,145.673,57.1,145.213,56.25,144.312z"/>
		<path d="M117.75,102.312c-0.01,0.42-0.01,0.82-0.01,1.19C117.6,103.022,117.59,102.612,117.75,102.312z"/>
		<path d="M36,38.562c0,2.25,0,4.5,0,6.75c-4.52-1.73-9.98-2.52-15-3.75c1.49-3.09-2.62-3.82-6-5.25
			C22.46,33.612,28.89,38.422,36,38.562z M24.75,40.812c3.56-2.05,8.48,2.18,9,0c-3.67,1.62-3.64-4.3-5.25-2.25
			C30.54,39.692,24.87,39.362,24.75,40.812z"/>
		<path d="M72,36.312c16.71,1.54,23.62,25.04,18.86,41.23c1.28-18.71-1.13-35.21-17.36-39.73c-1.43,3.57-2,8-6.75,8.25
			c1.31-1.3,0.83-4.64-0.75-5.25c0.25,5.51-3.2,11.29-6,11.25c0.9-5.37,1.4-11.6-2.25-14.25c-8.75,1.26-17.04,12.84-18,25.5
			c-0.93,12.27-0.67,23.42,13.5,21.75c5.22,2.68,8.53,7.22,14.25,6.75c3.37-0.28,5.07-4.33,10.5-6.75c5.12-2.28,9.26-1.74,11.4-3.59
			c-0.86,1.88-1.91,3.59-3.15,5.09c-8.89-1.5-11.75,7.46-18,8.25c-8.27,1.04-10.86-7.58-21-7.5c-12.3-1.92-10.28-32.23-3-42
			c5.33-7.15,19.54-14.27,17.25,3c2.64,1.36,3.53-5.44,3-9.75c2.5,0.5,4.07,1.93,3.75,5.25C70.58,42.393,72.46,40.522,72,36.312z"/>
		<path d="M73.87,148.793c-0.58,0-1.21,0-1.87,0.02c0.01-1.99-0.42-4.42,1.5-4.5c0.34-0.27,0.51-0.43,0.56-0.46
			c-0.16,0.19-1.93,1.979-1.31,3.46C73.1,148.072,73.48,148.543,73.87,148.793z"/>
		<path d="M18.75,19.812c2.44-1.27,13.84,10.87,11.25,10.5C27.09,25.973,23.35,22.462,18.75,19.812z"/>
		<path d="M81.75,73.062c1.13,0.24-7.93,3.23-6.75-0.75C76.87,72.942,79.02,73.292,81.75,73.062z"/>
		<path d="M69.92,77.062c1.4,2.02-2.82,2.92-3.54,2.38c-1.76,0.41-4.28-0.21-4.63-2c1.25,1,3.58,2.62,4.25,0.37
			C67.42,78.982,68.44,78.942,69.92,77.062z"/>
		<path d="M27.75,20.562c-3.31,0.04-6.99-3.47-9.75-1.5c1.02-2.22-3.51-0.2-3.75-3C18.06,17.763,26.68,18.612,27.75,20.562z"/>
		<path d="M110.25,89.562c-1.13,1.57-5.06-0.39-6.75-0.75c1.86,4.39,5.14,7.36,6.75,12c-3.28-4.73-8.09-14.41-17.25-15.75
			c2.36-2.14,7.64-1.36,11.25-2.25C105.62,85.692,107.53,88.032,110.25,89.562z"/>
		<path d="M99,106.062c2.58,11.6-4.22,26.09-12,32.25c0.07,1.7,1.5,8.81,0,5.25c-0.8-1.95-0.48-5.02-2.25-6
			c1.95-4.55,2.65-10.35,4.5-15c-0.59-3.35,1.15-5.09,0.75-0.75c-0.78,5.47-3.04,9.46-3.75,15
			C93.13,132.183,99.14,120.202,99,106.062z"/>
		<path d="M80.42,148.713c-1.09,0.239-2.62,0.149-4.85,0.1c1.49-0.81,2.72-3.36,2.51-3.71
			C78.49,145.503,78.97,148.643,80.42,148.713z"/>
		<path d="M51,73.812c0.32-1.68,3.7-0.3,5.25-0.75c-4.01,4.5-12.82,4.3-2.25,1.5C53.77,73.542,52.12,73.942,51,73.812z"/>
		<path d="M44.25,135.312c1.97,2.39-0.36,4.34-0.88,7.12c-1.56-10.44-14.69-19.79-11.87-34.87
			C33.41,118.652,36.49,132.562,44.25,135.312z"/>
		<path d="M33.75,62.562c-4.86-1.68-13.1-0.73-17.25,0.75c3.74-2.61-5.71-2.63-7.5-0.75c0.13-4.88,7.74-8.75,15.75-8.25
			c-1.52-2.73-5.3-3.2-8.25-4.5C20.99,49.393,31.55,55.712,33.75,62.562z M26.25,55.812c0,0.42,0.61,0.85,0.75,0
			c-1.26-0.24-3.37-1-4.5,0c0.87,0.13,0.81,1.19,0.75,2.25C25.66,58.723,24.28,55.592,26.25,55.812z M21,58.062
			c1.46-0.5,0.51-4.88-0.75-2.25c2.31-0.11-1.63,3.05-1.5,0.75c0.42,0,0.85-0.61,0-0.75c-0.75,1-2.03,1.47-2.25,3
			C19.04,57.942,17.68,57.322,21,58.062z"/>
		<path d="M25.5,68.562c4.4,0.85,6.06,4.44,8.25,7.5c-1.32,4.18-5.56,5.44-7.5,9c-1.87-1.2,1.8-3.14,3-3.75
			c-3.97-2.65-13.71,1.06-18,3c0.72-6.53,11.34-9.66,16.5-14.25C27.42,69.232,21.5,69.103,25.5,68.562z"/>
		<path d="M94.5,13.062c-1.25-1.3,4.69-1.77,7.5-1.5C101.54,14.212,96.84,11.013,94.5,13.062z"/>
		<path d="M60,70.062c6.96-3.83,9.28-2.05,9.17,0.4c-1.46-0.97-2.54-2.33-5.42-1.9c-0.3,1.45-2.91,0.59-2.25,3
			c0.24,1.76,2.32,1.68,3,3c1.94-0.23,3.23-1.11,4.21-2.29C67.31,75.342,63.04,77.652,60,70.062z"/>
		<path d="M111.75,103.812c-2.89,1.11-5.3-4.68-9-5.25C105.6,98.032,109.6,103.143,111.75,103.812z"/>
		<path d="M124.5,97.062C127.55,99.322,126.05,103.893,124.5,97.062L124.5,97.062z"/>
		<path d="M105,67.062c1.54,0.87-1.95,2.99-3.75,3c0.08,1.92,2.79,1.21,3.75,2.25c1.65,1.56-3.79-0.65-5.25-0.75
			C100.63,69.192,103.64,68.953,105,67.062z"/>
		<path d="M48,24.312c1.15-4.39,1.31-11.05,1.5-1.5c-0.4,3.6-2.15,5.85-3,9c-5.66-3.59-9.37-9.13-17.25-10.5
			c1.26-1.93,4.3,0.64,5.25,1.5c0.81-0.19,0.51-1.49,1.5-1.5c-0.55-2.77-2.26,0.32-3.75-1.5c1.83-2.02,5.99-0.03,8.25,0
			c-0.21,1.74-2,1.72-3,0.75c1.31,1.53-0.56,1.47,0.75,3c2.12,0.62,1.94-1.06,3.75-0.75c-0.9,0.98-0.29,1.18,0,2.25
			c2.1-0.01-1.79-2.05,1.5-1.5c-0.49-0.76-1.72-0.78-1.5-2.25c-1.49,0.01-0.95,2.05-3,1.5C40.98,18.002,45.59,22.913,48,24.312z"/>
		<path d="M57,70.062c0.16-3.48,11.99-5.39,15.75-1.5C69.86,67.772,60.1,65.502,57,70.062z"/>
		<path d="M102,97.062c-2.94,0.5-5.76-0.95-9.75-1.5c-0.07,2.96-0.97,11.12-1.5,15.75c-0.7,6.12-0.94,6.98-0.75-1.5
			c0.08-3.7,1.47-7.45,0.75-13.5c-0.72-1.86-2.88,1.03-5.25,0c2.35,4.64,4.01,11.42,3,17.25c-2.88-3.53-7.8-7.42-12-9
			c-3.54-1.33-4.47-3.91-6.75-3.75c-6.27,0.43-8.96,8.33-10.5,16.5c-3.44-1.56-2.67-7.33-3.75-11.25
			c-2.19,10.01-1.86,29.64,6.75,33.75c-0.2,3.11,0.98,2.92,0,5.25c0.74-4.36-5.23-6.81-6.75-10.5c-4.2-10.2-0.21-23.22-2.25-34.5
			c-5.05,1.2-9.32,3.18-12.75,6c-1.46,8.44,3.13,24,3,28.5c-2.2-8.05-4.38-16.12-3.75-27c-1.25-1.92-2.01,2.93-4.5,2.25
			c0.78-7.72,2.83-14.17,6-19.5c-1.91-0.45-4.79,1.89-5.43,2.43c0.04-0.05,0.1-0.109,0.18-0.18c-2.52-3.45,4.59-2.6,6.75-3.75
			c-2.03,5.72-5.41,10.09-6,17.25c4.04-1.46,9.93-7.56,18-7.5c0.94,5.06,2.36,9.64,3,15c3.36-6.02,4.67-13.52,11.25-14.25
			c7.49-0.83,13.37,7.63,18.75,11.25c0.38-6.88-2.47-10.53-4.5-15C89.98,93.553,96.53,94.463,102,97.062z"/>
		<path d="M79.5,28.062c2.78-6.72,6.12-12.88,13.5-15c-7.74,3.51-11.55,10.95-14.25,19.5c-3.04-4.71-4.87-10.63-4.5-18.75
			c1.26-2.16,0.6,3.83,0.75,5.25c3.55-1.7,5.89-4.61,9-6.75C84.02,15.683,77.06,22.243,79.5,28.062z M81,16.062
			c0.04-0.38-0.04-0.27-0.21,0.1c-1.8,0.84-2.39,2.9-4.29,3.65c0.41,1.34,0.39,3.11,1.5,3.75c0.62-2.12-1.06-1.94-0.75-3.75
			c1.43,1.69,2.97-2.41,3.54-3.65C80.85,16.123,80.93,16.092,81,16.062z"/>
		<path fill="#FFFFFF" d="M69.17,70.462c-0.02,0.59-0.18,1.21-0.46,1.81c-0.98,1.18-2.27,2.06-4.21,2.29c-0.68-1.32-2.76-1.24-3-3
			c-0.66-2.41,1.95-1.55,2.25-3C66.63,68.132,67.71,69.493,69.17,70.462z"/>
		<path d="M71.25,66.312c-6.18-5.86,7.39-18.25,6-4.5c-1.43,1.41-1.36-0.45-3.75,0c-0.22,1.97,2.91,0.59,2.25,3
			C74.18,65.243,73.61,66.672,71.25,66.312z"/>
		<path d="M118.5,85.812c3.17,1.7-5.44-0.58-7.5-0.75C110.04,83.303,116.61,85.572,118.5,85.812z"/>
		<path d="M66,16.062c0.63,0.09-1.9,9.45-2.25,13.5c-5.4-10.2-12.69-21.32-21.75-25.5c4.05,0.46,9.54,5.95,12.75,9.75
			c0.99,0.36,0.05-3.44-0.75-3.75c3.67,0.1,7.87,6.12,9.75,10.5C65.37,19.933,64.96,17.272,66,16.062z"/>
		<path d="M91.5,40.812c2.79,1.01,6.87-7.1,10.5-5.25c-5.23,1.02-6.9,5.6-11.25,7.5c-0.09-6.59-0.13-13.13,0.75-18.75
			c2.58,6.37,12.4-1.38,18-1.5C102.65,27.962,94.8,32.112,91.5,40.812z M96,29.562c1.54,2.12,4.69-2.53,1.5-3
			c0.61,3.5-5.47,2.49-3.75,3c-0.09,0.77,3.24,1.52,0.75,2.25c-0.08-0.6-2.48-2.27-2.25-0.75c1.24,0.01,0.42,2.08,1.5,2.25
			c-0.55-2.47,1.49-1.15,1.5,0c-0.42,0-0.85,0.61,0,0.75C96,32.232,95.5,32.462,96,29.562z"/>
		<path d="M8.25,66.312c1.85,1.57-9.63,8.15-3.75,6.75c-0.95,1.09-2.3,1.78-3.98,2.15c0-0.19,0-0.38,0-0.57
			C2.86,71.643,5.86,69.283,8.25,66.312z"/>
		<path d="M124.5,97.062c-2.2-0.2-2.3,1.7-4.5,1.5c-2.18,1.16,2.31-1.53,3-2.25C123.59,96.503,124.09,96.763,124.5,97.062z"/>
		<path d="M85.5,147.312c-0.19,0.81-1.49,0.51-1.5,1.5c-1.89-1.42,0.69-2.63-0.75-4.5C82.1,142.133,84.78,146.622,85.5,147.312z"/>
		<path fill="#FFFFFF" d="M76.5,19.812c1.9-0.75,2.49-2.81,4.29-3.65c-0.57,1.24-2.11,5.34-3.54,3.65
			c-0.31,1.81,1.37,1.63,0.75,3.75C76.89,22.922,76.91,21.152,76.5,19.812z"/>
		<path d="M126.75,106.062c2.03,1.12-1.3,3.13-2.25,3.75c-5.61-1.11-6.82,0.56-6.76-6.31
			C118.66,106.622,125.23,112.473,126.75,106.062z"/>
		<path d="M24,85.062c-0.05,3.21-6.31,6.68-9,9.75c0.49,2.25,1.6-0.72,3,0c1.57,0.67-2.68,1.75-4.5,1.5
			C16.56,92.122,20.94,89.253,24,85.062z"/>
		<path d="M60,60.312c0.35,1.6-1.07,1.43-2.25,1.5c-1.17,2.67,2.55,0.45,2.25,2.25c-3.12,6.43-9.66-3.8-6.75-8.25
			C57.71,55.103,58.76,57.803,60,60.312z"/>
		<path d="M108,33.312c3.31-2.19,8.63-2.37,14.25-2.25c-1.11,1.89-2.9,3.1-5.25,3.75c-1.67,1.54,1.89-2.55,3.75-2.25
			C116.98,30.322,111.87,33.163,108,33.312z"/>
		<path d="M122.25,72.312c-4.13,0.37-9.44-4.55-15.75-4.5c0.01-3.12,10.65-5.48,7.5-4.5C115.71,67.353,119.3,69.513,122.25,72.312z"
			/>
		<path d="M33.75,91.062c-2.86,2.14-6.99,3.01-8.25,6.75c-2.49-0.81,2.39-4.71-2.25-3.75C25.97,92.282,30.04,91.853,33.75,91.062z"
			/>
		<path fill="#FFFFFF" d="M33.75,40.812c-0.52,2.18-5.44-2.05-9,0c0.12-1.45,5.79-1.12,3.75-2.25
			C30.11,36.513,30.08,42.433,33.75,40.812z"/>
		<path d="M43.37,142.433c0.13,0.87,0.18,1.74,0.13,2.63C43.21,144.103,43.21,143.232,43.37,142.433z"/>
		<path d="M69.17,70.462c0.19,0.13,0.38,0.24,0.58,0.35c-0.32,0.52-0.65,1.01-1.04,1.46C68.99,71.672,69.15,71.053,69.17,70.462z"/>
		<path fill="#FFFFFF" d="M20.25,55.812c1.26-2.63,2.21,1.75,0.75,2.25c-3.32-0.74-1.96-0.12-4.5,0.75c0.22-1.53,1.5-2,2.25-3
			c0.85,0.14,0.42,0.75,0,0.75C18.62,58.862,22.56,55.703,20.25,55.812z"/>
		<path d="M80.43,148.713c0.54-0.12,0.97-0.32,1.32-0.65C81.24,148.543,80.8,148.732,80.43,148.713z"/>
		<path d="M73.87,148.793c0.61,0,1.18,0.01,1.7,0.02C75.02,149.112,74.43,149.173,73.87,148.793z"/>
		<path fill="#FFFFFF" d="M27,55.812c-0.14,0.85-0.75,0.42-0.75,0c-1.97-0.22-0.59,2.91-3,2.25c0.06-1.06,0.12-2.12-0.75-2.25
			C23.63,54.812,25.74,55.572,27,55.812z"/>
	</g>
	<g>
	</g>
</g>
</svg>
